<svg width="409" height="55" viewBox="0 0 409 55" fill="none" xmlns="http://www.w3.org/2000/svg">
<path d="M26.1816 0.835938H42.5C42.7539 0.875 42.8809 1.01172 42.8809 1.24609V21.4902C42.8809 21.7637 42.7539 21.9004 42.5 21.9004H40.7129V22.8965C40.7129 23.0332 40.6445 23.1016 40.5078 23.1016C40.6445 23.3555 40.7129 23.5508 40.7129 23.6875C41.2402 23.6875 41.5039 23.6191 41.5039 23.4824L42.8809 23.6875H45.6641C45.8594 23.6875 46.0547 23.8828 46.25 24.2734C46.25 24.5469 46.123 24.6836 45.8691 24.6836H43.291L42.2949 24.8887V28.668C42.2949 28.9219 42.1582 29.0488 41.8848 29.0488H38.9258L38.7207 30.0449V32.623C38.7598 32.8965 38.8867 33.0332 39.1016 33.0332H43.0859V38.5996C43.0859 38.8535 42.8223 38.9805 42.2949 38.9805V39.7715H45.459C45.7324 39.8105 45.8691 39.9473 45.8691 40.1816V42.9648C45.8691 43.2188 45.7324 43.3457 45.459 43.3457H43.4961C43.1836 43.3457 42.9102 43.4141 42.6758 43.5508C42.4609 43.4141 42.1973 43.3457 41.8848 43.3457C41.709 43.3457 41.5137 43.6777 41.2988 44.3418C41.3574 44.752 41.6895 45.2207 42.2949 45.748V47.5352H43.6719C43.9453 47.5742 44.082 47.7012 44.082 47.916C44.082 48.1113 43.8867 48.3164 43.4961 48.5312H40.0977V48.9121L41.5039 49.7031V54.2734C41.5039 54.5469 41.3672 54.6836 41.0938 54.6836H40.0977C39.9609 54.6836 39.8926 54.6152 39.8926 54.4785L39.5117 54.6836H32.3633C31.2305 54.6836 29.5703 54.6152 27.3828 54.4785V49.3223L26.5918 49.1172C26.3379 49.2539 26.1426 49.3223 26.0059 49.3223V48.5312H26.3867C27.0898 48.5312 28.2227 48.4629 29.7852 48.3262V47.916C29.7852 47.6621 29.6484 47.5352 29.375 47.5352L28.9648 47.7402C28.3984 47.7402 28.0762 46.9395 27.998 45.3379C27.5293 45.3379 27.2559 44.7422 27.1777 43.5508L26.7969 43.3457H5.73242C5.00977 43.3457 4.08203 43.2871 2.94922 43.1699C2.71484 43.2871 2.45117 43.3457 2.1582 43.3457L1.95312 42.9648C3.00781 41.207 3.53516 40.2793 3.53516 40.1816C3.53516 39.9082 3.4082 39.7715 3.1543 39.7715H0.576172C0.302734 39.7715 0.166016 39.6445 0.166016 39.3906C1.25977 39.0781 1.99219 38.4824 2.36328 37.6035C4.55078 32.9551 6.13281 30.1035 7.10938 29.0488H9.51172C10.4102 29.0488 11.2695 27.8574 12.0898 25.4746L12.8809 24.6836H16.25C16.5234 24.6836 16.6602 24.5469 16.6602 24.2734V23.8926H16.4551C13.3887 23.7559 11.7969 23.6875 11.6797 23.6875C11.6797 23.5508 11.6211 23.4824 11.5039 23.4824C11.8555 22.584 12.2461 21.9883 12.6758 21.6953H14.668C17.1484 17.3008 20.459 11.1387 24.5996 3.20898C24.873 2.38867 25.4004 1.59766 26.1816 0.835938ZM28.1738 20.6992V21.6953H28.3789C28.6523 21.6953 28.7891 21.5684 28.7891 21.3145V20.6992H28.1738ZM24.8047 23.4824C24.9414 23.4824 25.0098 23.5508 25.0098 23.6875L25.3906 23.4824C25.625 23.6191 25.8887 23.6875 26.1816 23.6875L26.3867 23.2773V21.9004H26.1816C25.4004 21.9004 24.9414 22.4277 24.8047 23.4824ZM29.7852 24.2734V24.4785H30.3711C30.6641 24.4785 30.9277 24.5469 31.1621 24.6836C31.3965 24.5469 31.6602 24.4785 31.9531 24.4785V24.2734C31.9531 24.0195 31.8262 23.8926 31.5723 23.8926H30.166C29.9121 23.9316 29.7852 24.0586 29.7852 24.2734ZM9.7168 23.8926H10.0977V24.0977C10.0977 24.2734 9.90234 24.4688 9.51172 24.6836C9.23828 24.6836 9.10156 24.5469 9.10156 24.2734L9.7168 23.8926ZM23.4277 29.0488H21.0254C20.1074 29.0488 19.1113 30.377 18.0371 33.0332H24.8047V29.2539L25.0098 28.8438L26.0059 29.0488H26.7969L28.1738 28.8438V24.8887L27.1777 24.6836H26.7969C25.7812 24.6836 24.9805 25.7383 24.3945 27.8477C23.8867 28.6484 23.5645 29.0488 23.4277 29.0488ZM24.3945 48.3262C24.668 48.3652 24.8047 48.4922 24.8047 48.707V48.9121C24.8047 49.1855 24.668 49.3223 24.3945 49.3223H24.2188C23.9453 49.3223 23.8086 49.1855 23.8086 48.9121C23.8086 48.7363 24.0039 48.541 24.3945 48.3262Z" fill="white"/>
<path d="M77.3457 0.923828C81.8965 0.923828 85.7441 1.89062 88.8887 3.82422C88.6543 3.94141 88.4004 4 88.127 4V4.38086C88.5957 4.38086 90.3828 5.60156 93.4883 8.04297C94.25 8.04297 95.0215 8.29688 95.8027 8.80469H97.9414L98.8789 9.00977V9.21484C98.8789 9.46875 98.752 9.5957 98.498 9.5957H97.5312C97.4141 9.5957 97.3555 9.52734 97.3555 9.39062C97.1406 9.52734 96.8184 9.5957 96.3887 9.5957V9.77148C99.2988 13.0137 101.477 17.3789 102.922 22.8672L102.365 23.248H97.7363V23.4531C99.6309 23.4531 100.725 23.5117 101.018 23.6289C101.232 23.5117 101.555 23.4531 101.984 23.4531H102.365C102.873 23.4531 103.127 24.6738 103.127 27.1152C103.166 27.3691 103.293 27.4961 103.508 27.4961H105.441C105.559 27.4961 105.617 27.5547 105.617 27.6719L106.027 27.4961H106.203C106.984 27.5742 107.375 27.7598 107.375 28.0527C107.375 32.3301 106.154 36.6367 103.713 40.9727L103.332 41.1484H99.6699L98.8789 41.7344H96.9746C96.7207 41.7734 96.5938 41.9004 96.5938 42.1152C98 42.1152 98.7031 42.1836 98.7031 42.3203C95.7148 47.2422 91.0957 50.8945 84.8457 53.2773C81.7988 54.0586 79.0352 54.4492 76.5547 54.4492H74.4453C72.9414 54.4492 71.916 54.3125 71.3691 54.0391C71.1152 54.1758 70.9199 54.2441 70.7832 54.2441C65.1387 53.2871 60.7148 51.4219 57.5117 48.6484C55.0312 46.5586 53.0391 44.4492 51.5352 42.3203C51.3203 42.1836 51.0664 42.1152 50.7734 42.1152H49.0449V41.7344H50.9492C50.9492 41.3438 51.0859 41.1484 51.3594 41.1484H53.8496L54.8164 40.9727C52.8242 37.1836 51.7305 33.7168 51.5352 30.5723V29.9863L51.7402 29.6055C51.8574 29.6055 51.916 29.6738 51.916 29.8105C53.8496 29.6738 55.2656 29.6055 56.1641 29.6055H59.0352V29.4004C59.0352 29.1465 58.9082 29.0195 58.6543 29.0195H51.7402C51.584 29.0195 51.2617 28.5703 50.7734 27.6719H47.4922C47.2383 27.6719 47.1113 27.5449 47.1113 27.291C47.1113 27.0371 47.6289 26.8418 48.6641 26.7051V25.9434C48.5273 25.9434 48.332 25.8848 48.0781 25.7676C47.8242 25.8848 47.6289 25.9434 47.4922 25.9434C47.375 25.6895 47.3164 25.4941 47.3164 25.3574C47.6875 20.9043 49.3477 16.4219 52.2969 11.9102C53.4297 10.3672 54.4648 9.5957 55.4023 9.5957C57.0625 9.5957 57.8926 9.40039 57.8926 9.00977C57.4629 8.75586 57.082 8.62891 56.75 8.62891H56.5449L55.5781 8.80469L55.4023 8.42383L55.5781 8.04297C55.0703 8.04297 54.8164 7.91602 54.8164 7.66211C55.7734 6.82227 57.5703 5.60156 60.207 4H62.3164C65.7539 1.94922 70.7637 0.923828 77.3457 0.923828ZM61.3496 24.9766V25.3574L62.5215 26.1484V26.5293C62.5215 26.7832 62.3848 26.9102 62.1113 26.9102H61.1738V27.4961H64.6309C64.8457 27.4961 65.041 27.9453 65.2168 28.8438C67.9707 28.9609 70.0215 29.0195 71.3691 29.0195H72.8926V29.4004C72.8926 29.6738 72.7656 29.8105 72.5117 29.8105C72.2773 29.6738 72.0918 29.6055 71.9551 29.6055C71.8184 29.6055 71.75 29.6738 71.75 29.8105L70.7832 29.6055C70.3145 29.6055 68.5176 29.6738 65.3926 29.8105V30.748C66.0176 33.8926 67.6191 36.7246 70.1973 39.2441C71.623 40.2207 72.3359 40.7969 72.3359 40.9727L71.9551 41.1484H69.2598L69.4355 41.5293V41.7344H68.293V42.1152H70.6074C72.8926 42.7598 74.4258 43.082 75.207 43.082C75.9492 43.082 77.1699 42.8867 78.8691 42.4961C78.8691 42.2422 78.7422 42.1152 78.4883 42.1152H77.5215V41.7344H79.6309C79.7676 41.7344 80.666 41.5391 82.3262 41.1484H84.2598C84.5527 41.1484 84.8066 41.0898 85.0215 40.9727C85.2754 41.0898 85.4707 41.1484 85.6074 41.1484C88.127 40.0742 90.373 37.7012 92.3457 34.0293C93.1074 31.4512 93.4883 29.9766 93.4883 29.6055V28.0527C93.4883 27.8379 92.8535 27.6523 91.584 27.4961L91.2031 27.6719H89.8555C89.3281 27.6719 89.0645 26.3926 89.0645 23.834L88.127 23.6289H81.5645V23.248C83.498 23.1309 84.9141 23.0723 85.8125 23.0723H88.6836V22.8672C87.4727 19.4492 85.5488 16.8223 82.9121 14.9863C80.002 13.1895 77.6289 12.291 75.793 12.291C70.4219 12.291 66.0566 15.0449 62.6973 20.5527C61.7988 22.8184 61.3496 24.293 61.3496 24.9766ZM48.0781 29.0195H50.1875C50.4414 29.0586 50.5684 29.1855 50.5684 29.4004L50.1875 29.6055H48.0781V29.0195ZM95.4219 29.8105L95.2461 30.1914V30.3672H95.4219C95.4219 30.1133 95.5488 29.9863 95.8027 29.9863V29.8105H95.4219ZM71.75 32.6816H71.9551C72.209 32.7207 72.3359 32.8477 72.3359 33.0625V33.6484C72.3359 33.9023 72.209 34.0293 71.9551 34.0293H71.75C71.4961 34.0293 71.3691 33.9023 71.3691 33.6484V33.0625C71.4082 32.8086 71.5352 32.6816 71.75 32.6816ZM49.2207 34.791H50.3926L50.5684 35.7578L50.0117 36.1387H49.4258C49.1719 36.1387 48.9766 35.7578 48.8398 34.9961L49.2207 34.791Z" fill="white"/>
<path d="M130.854 0.835938H147.172C147.426 0.875 147.553 1.01172 147.553 1.24609V21.4902C147.553 21.7637 147.426 21.9004 147.172 21.9004H145.385V22.8965C145.385 23.0332 145.316 23.1016 145.18 23.1016C145.316 23.3555 145.385 23.5508 145.385 23.6875C145.912 23.6875 146.176 23.6191 146.176 23.4824L147.553 23.6875H150.336C150.531 23.6875 150.727 23.8828 150.922 24.2734C150.922 24.5469 150.795 24.6836 150.541 24.6836H147.963L146.967 24.8887V28.668C146.967 28.9219 146.83 29.0488 146.557 29.0488H143.598L143.393 30.0449V32.623C143.432 32.8965 143.559 33.0332 143.773 33.0332H147.758V38.5996C147.758 38.8535 147.494 38.9805 146.967 38.9805V39.7715H150.131C150.404 39.8105 150.541 39.9473 150.541 40.1816V42.9648C150.541 43.2188 150.404 43.3457 150.131 43.3457H148.168C147.855 43.3457 147.582 43.4141 147.348 43.5508C147.133 43.4141 146.869 43.3457 146.557 43.3457C146.381 43.3457 146.186 43.6777 145.971 44.3418C146.029 44.752 146.361 45.2207 146.967 45.748V47.5352H148.344C148.617 47.5742 148.754 47.7012 148.754 47.916C148.754 48.1113 148.559 48.3164 148.168 48.5312H144.77V48.9121L146.176 49.7031V54.2734C146.176 54.5469 146.039 54.6836 145.766 54.6836H144.77C144.633 54.6836 144.564 54.6152 144.564 54.4785L144.184 54.6836H137.035C135.902 54.6836 134.242 54.6152 132.055 54.4785V49.3223L131.264 49.1172C131.01 49.2539 130.814 49.3223 130.678 49.3223V48.5312H131.059C131.762 48.5312 132.895 48.4629 134.457 48.3262V47.916C134.457 47.6621 134.32 47.5352 134.047 47.5352L133.637 47.7402C133.07 47.7402 132.748 46.9395 132.67 45.3379C132.201 45.3379 131.928 44.7422 131.85 43.5508L131.469 43.3457H110.404C109.682 43.3457 108.754 43.2871 107.621 43.1699C107.387 43.2871 107.123 43.3457 106.83 43.3457L106.625 42.9648C107.68 41.207 108.207 40.2793 108.207 40.1816C108.207 39.9082 108.08 39.7715 107.826 39.7715H105.248C104.975 39.7715 104.838 39.6445 104.838 39.3906C105.932 39.0781 106.664 38.4824 107.035 37.6035C109.223 32.9551 110.805 30.1035 111.781 29.0488H114.184C115.082 29.0488 115.941 27.8574 116.762 25.4746L117.553 24.6836H120.922C121.195 24.6836 121.332 24.5469 121.332 24.2734V23.8926H121.127C118.061 23.7559 116.469 23.6875 116.352 23.6875C116.352 23.5508 116.293 23.4824 116.176 23.4824C116.527 22.584 116.918 21.9883 117.348 21.6953H119.34C121.82 17.3008 125.131 11.1387 129.271 3.20898C129.545 2.38867 130.072 1.59766 130.854 0.835938ZM132.846 20.6992V21.6953H133.051C133.324 21.6953 133.461 21.5684 133.461 21.3145V20.6992H132.846ZM129.477 23.4824C129.613 23.4824 129.682 23.5508 129.682 23.6875L130.062 23.4824C130.297 23.6191 130.561 23.6875 130.854 23.6875L131.059 23.2773V21.9004H130.854C130.072 21.9004 129.613 22.4277 129.477 23.4824ZM134.457 24.2734V24.4785H135.043C135.336 24.4785 135.6 24.5469 135.834 24.6836C136.068 24.5469 136.332 24.4785 136.625 24.4785V24.2734C136.625 24.0195 136.498 23.8926 136.244 23.8926H134.838C134.584 23.9316 134.457 24.0586 134.457 24.2734ZM114.389 23.8926H114.77V24.0977C114.77 24.2734 114.574 24.4688 114.184 24.6836C113.91 24.6836 113.773 24.5469 113.773 24.2734L114.389 23.8926ZM128.1 29.0488H125.697C124.779 29.0488 123.783 30.377 122.709 33.0332H129.477V29.2539L129.682 28.8438L130.678 29.0488H131.469L132.846 28.8438V24.8887L131.85 24.6836H131.469C130.453 24.6836 129.652 25.7383 129.066 27.8477C128.559 28.6484 128.236 29.0488 128.1 29.0488ZM129.066 48.3262C129.34 48.3652 129.477 48.4922 129.477 48.707V48.9121C129.477 49.1855 129.34 49.3223 129.066 49.3223H128.891C128.617 49.3223 128.48 49.1855 128.48 48.9121C128.48 48.7363 128.676 48.541 129.066 48.3262Z" fill="white"/>
<path d="M207.573 26.2188H185.22V33.0156H199.839V33.1621C199.839 40.3691 193.745 45.3203 185.63 45.3203C175.552 45.3203 168.198 37.7031 168.198 28.4453C168.198 18.6602 176.343 11.4531 184.956 11.4531C189.439 11.4531 194.419 13.7383 198.111 17.3711L202.241 11.2188C197.788 6.88281 190.991 4.01172 185.044 3.98242C171.626 3.98242 160.669 15.0273 160.669 28.4453C160.669 41.834 171.568 52.791 185.308 52.791C197.583 52.791 207.779 43.9434 207.779 29.9102C207.779 28.5918 207.691 27.3027 207.573 26.2188Z" fill="white"/>
<path d="M239.169 42.375H218.709L214.474 52H208.809L226.244 13.5H231.689L249.179 52H243.404L239.169 42.375ZM237.244 37.975L228.939 19.11L220.634 37.975H237.244Z" fill="white"/>
<path d="M289.517 52L289.462 23.95L275.547 47.325H273.017L259.102 24.115V52H253.822V13.5H258.332L274.392 40.56L290.232 13.5H294.742L294.797 52H289.517Z" fill="white"/>
<path d="M305.251 13.5H310.751V52H305.251V13.5Z" fill="white"/>
<path d="M354.288 13.5V52H349.778L326.678 23.29V52H321.178V13.5H325.688L348.788 42.21V13.5H354.288Z" fill="white"/>
<path d="M408.126 26.2188H385.772V33.0156H400.391V33.1621C400.391 40.3691 394.298 45.3203 386.182 45.3203C376.104 45.3203 368.751 37.7031 368.751 28.4453C368.751 18.6602 376.895 11.4531 385.509 11.4531C389.991 11.4531 394.971 13.7383 398.663 17.3711L402.794 11.2188C398.341 6.88281 391.544 4.01172 385.596 3.98242C372.179 3.98242 361.221 15.0273 361.221 28.4453C361.221 41.834 372.12 52.791 385.86 52.791C398.136 52.791 408.331 43.9434 408.331 29.9102C408.331 28.5918 408.243 27.3027 408.126 26.2188Z" fill="white"/>
</svg>
